<svg xmlns="http://www.w3.org/2000/svg" viewBox="0 0 32 32" stroke-linecap="round" stroke-linejoin="round"><rect x="0.5" y="0.5" width="31.0" height="31.0" rx="5" fill="#E5E9ED" stroke="none" stroke-width="0.8"/><rect x="4" y="4" width="9" height="9" rx="0.5" fill="#7165A5" stroke="none" stroke-width="0.8"/><rect x="6" y="6" width="5" height="5" rx="0" fill="#F8FAFC" stroke="none" stroke-width="0.8"/><rect x="7.5" y="7.5" width="2.0" height="2.0" rx="0" fill="#3C5062" stroke="none" stroke-width="0.8"/><rect x="19" y="4" width="9" height="9" rx="0.5" fill="#7165A5" stroke="none" stroke-width="0.8"/><rect x="21" y="6" width="5" height="5" rx="0" fill="#F8FAFC" stroke="none" stroke-width="0.8"/><rect x="22.5" y="7.5" width="2.0" height="2.0" rx="0" fill="#3C5062" stroke="none" stroke-width="0.8"/><rect x="4" y="19" width="9" height="9" rx="0.5" fill="#7165A5" stroke="none" stroke-width="0.8"/><rect x="6" y="21" width="5" height="5" rx="0" fill="#F8FAFC" stroke="none" stroke-width="0.8"/><rect x="7.5" y="22.5" width="2.0" height="2.0" rx="0" fill="#3C5062" stroke="none" stroke-width="0.8"/><rect x="16" y="16" width="3" height="3" rx="0" fill="#3C5062" stroke="none" stroke-width="0.8"/><rect x="23" y="16" width="3" height="3" rx="0" fill="#3C5062" stroke="none" stroke-width="0.8"/><rect x="18" y="22" width="3" height="3" rx="0" fill="#3C5062" stroke="none" stroke-width="0.8"/><rect x="25" y="25" width="3" height="3" rx="0" fill="#3C5062" stroke="none" stroke-width="0.8"/><rect x="16" y="27" width="3" height="3" rx="0" fill="#3C5062" stroke="none" stroke-width="0.8"/><rect x="27" y="20" width="3" height="3" rx="0" fill="#3C5062" stroke="none" stroke-width="0.8"/></svg>